<svg xmlns="http://www.w3.org/2000/svg" viewBox="0 0 200 280"><rect width="200" height="280" rx="12" fill="#4a2a52" stroke="#3a3a44" stroke-width="2"/><rect x="14" y="14" width="172" height="252" rx="8" fill="none" stroke="#c9a86a" stroke-width="2"/><circle cx="35" cy="35" r="5" fill="#c9a86a" opacity="0.55"/><circle cx="35" cy="61" r="5" fill="#c9a86a" opacity="0.55"/><circle cx="35" cy="87" r="5" fill="#c9a86a" opacity="0.55"/><circle cx="35" cy="113" r="5" fill="#c9a86a" opacity="0.55"/><circle cx="35" cy="139" r="5" fill="#c9a86a" opacity="0.55"/><circle cx="35" cy="165" r="5" fill="#c9a86a" opacity="0.55"/><circle cx="35" cy="191" r="5" fill="#c9a86a" opacity="0.55"/><circle cx="35" cy="217" r="5" fill="#c9a86a" opacity="0.55"/><circle cx="35" cy="243" r="5" fill="#c9a86a" opacity="0.55"/><circle cx="61" cy="35" r="5" fill="#c9a86a" opacity="0.55"/><circle cx="61" cy="61" r="5" fill="#c9a86a" opacity="0.55"/><circle cx="61" cy="87" r="5" fill="#c9a86a" opacity="0.55"/><circle cx="61" cy="113" r="5" fill="#c9a86a" opacity="0.55"/><circle cx="61" cy="139" r="5" fill="#c9a86a" opacity="0.55"/><circle cx="61" cy="165" r="5" fill="#c9a86a" opacity="0.55"/><circle cx="61" cy="191" r="5" fill="#c9a86a" opacity="0.55"/><circle cx="61" cy="217" r="5" fill="#c9a86a" opacity="0.55"/><circle cx="61" cy="243" r="5" fill="#c9a86a" opacity="0.55"/><circle cx="87" cy="35" r="5" fill="#c9a86a" opacity="0.55"/><circle cx="87" cy="61" r="5" fill="#c9a86a" opacity="0.55"/><circle cx="87" cy="87" r="5" fill="#c9a86a" opacity="0.55"/><circle cx="87" cy="113" r="5" fill="#c9a86a" opacity="0.55"/><circle cx="87" cy="139" r="5" fill="#c9a86a" opacity="0.55"/><circle cx="87" cy="165" r="5" fill="#c9a86a" opacity="0.55"/><circle cx="87" cy="191" r="5" fill="#c9a86a" opacity="0.55"/><circle cx="87" cy="217" r="5" fill="#c9a86a" opacity="0.55"/><circle cx="87" cy="243" r="5" fill="#c9a86a" opacity="0.55"/><circle cx="113" cy="35" r="5" fill="#c9a86a" opacity="0.55"/><circle cx="113" cy="61" r="5" fill="#c9a86a" opacity="0.55"/><circle cx="113" cy="87" r="5" fill="#c9a86a" opacity="0.55"/><circle cx="113" cy="113" r="5" fill="#c9a86a" opacity="0.55"/><circle cx="113" cy="139" r="5" fill="#c9a86a" opacity="0.55"/><circle cx="113" cy="165" r="5" fill="#c9a86a" opacity="0.55"/><circle cx="113" cy="191" r="5" fill="#c9a86a" opacity="0.55"/><circle cx="113" cy="217" r="5" fill="#c9a86a" opacity="0.55"/><circle cx="113" cy="243" r="5" fill="#c9a86a" opacity="0.55"/><circle cx="139" cy="35" r="5" fill="#c9a86a" opacity="0.55"/><circle cx="139" cy="61" r="5" fill="#c9a86a" opacity="0.55"/><circle cx="139" cy="87" r="5" fill="#c9a86a" opacity="0.55"/><circle cx="139" cy="113" r="5" fill="#c9a86a" opacity="0.55"/><circle cx="139" cy="139" r="5" fill="#c9a86a" opacity="0.55"/><circle cx="139" cy="165" r="5" fill="#c9a86a" opacity="0.55"/><circle cx="139" cy="191" r="5" fill="#c9a86a" opacity="0.55"/><circle cx="139" cy="217" r="5" fill="#c9a86a" opacity="0.55"/><circle cx="139" cy="243" r="5" fill="#c9a86a" opacity="0.55"/><circle cx="165" cy="35" r="5" fill="#c9a86a" opacity="0.55"/><circle cx="165" cy="61" r="5" fill="#c9a86a" opacity="0.55"/><circle cx="165" cy="87" r="5" fill="#c9a86a" opacity="0.55"/><circle cx="165" cy="113" r="5" fill="#c9a86a" opacity="0.55"/><circle cx="165" cy="139" r="5" fill="#c9a86a" opacity="0.55"/><circle cx="165" cy="165" r="5" fill="#c9a86a" opacity="0.55"/><circle cx="165" cy="191" r="5" fill="#c9a86a" opacity="0.55"/><circle cx="165" cy="217" r="5" fill="#c9a86a" opacity="0.55"/><circle cx="165" cy="243" r="5" fill="#c9a86a" opacity="0.55"/></svg>