<?xml version="1.0" encoding="UTF-8" standalone="no"?>
<svg xmlns="http://www.w3.org/2000/svg" height="3.5in" width="2.5in" viewBox="-120 -168 240 336" preserveAspectRatio="none">
  <defs>
    <linearGradient id="sky" x1="0" y1="0" x2="0" y2="1">
      <stop offset="0" stop-color="#5877a0"/>
      <stop offset="1" stop-color="#b8d3e8"/>
    </linearGradient>
  </defs>
  <rect x="-119.5" y="-167.5" width="239" height="335" rx="14" fill="#2a2320" stroke="#0f0c0a" stroke-width="1"/>
  <rect x="-106" y="-154" width="212" height="308" rx="9" fill="url(#sky)" stroke="#c9b98a" stroke-width="2.5"/>
  <g transform="translate(0,-24)"><g stroke="#eaf6ff" stroke-width="5.5" stroke-linecap="round"><g transform="rotate(0)"><line x1="0" y1="0" x2="0" y2="-52"/><line x1="0" y1="-36" x2="-11" y2="-46"/><line x1="0" y1="-36" x2="11" y2="-46"/><line x1="0" y1="-18" x2="-9" y2="-27"/><line x1="0" y1="-18" x2="9" y2="-27"/></g><g transform="rotate(60)"><line x1="0" y1="0" x2="0" y2="-52"/><line x1="0" y1="-36" x2="-11" y2="-46"/><line x1="0" y1="-36" x2="11" y2="-46"/><line x1="0" y1="-18" x2="-9" y2="-27"/><line x1="0" y1="-18" x2="9" y2="-27"/></g><g transform="rotate(120)"><line x1="0" y1="0" x2="0" y2="-52"/><line x1="0" y1="-36" x2="-11" y2="-46"/><line x1="0" y1="-36" x2="11" y2="-46"/><line x1="0" y1="-18" x2="-9" y2="-27"/><line x1="0" y1="-18" x2="9" y2="-27"/></g><g transform="rotate(180)"><line x1="0" y1="0" x2="0" y2="-52"/><line x1="0" y1="-36" x2="-11" y2="-46"/><line x1="0" y1="-36" x2="11" y2="-46"/><line x1="0" y1="-18" x2="-9" y2="-27"/><line x1="0" y1="-18" x2="9" y2="-27"/></g><g transform="rotate(240)"><line x1="0" y1="0" x2="0" y2="-52"/><line x1="0" y1="-36" x2="-11" y2="-46"/><line x1="0" y1="-36" x2="11" y2="-46"/><line x1="0" y1="-18" x2="-9" y2="-27"/><line x1="0" y1="-18" x2="9" y2="-27"/></g><g transform="rotate(300)"><line x1="0" y1="0" x2="0" y2="-52"/><line x1="0" y1="-36" x2="-11" y2="-46"/><line x1="0" y1="-36" x2="11" y2="-46"/><line x1="0" y1="-18" x2="-9" y2="-27"/><line x1="0" y1="-18" x2="9" y2="-27"/></g></g></g>
  <rect x="-92" y="96" width="184" height="42" rx="8" fill="#2a2320" opacity="0.82"/>
  <text x="0" y="124" text-anchor="middle" font-family="Georgia, serif" font-size="24" fill="#f5efdf">Cold Snap</text>
</svg>
