<?xml version="1.0" encoding="UTF-8" standalone="no"?>
<svg xmlns="http://www.w3.org/2000/svg" height="3.5in" width="2.5in" viewBox="-120 -168 240 336" preserveAspectRatio="none">
  <defs>
    <linearGradient id="sky" x1="0" y1="0" x2="0" y2="1">
      <stop offset="0" stop-color="#4d5c68"/>
      <stop offset="1" stop-color="#8496a2"/>
    </linearGradient>
  </defs>
  <rect x="-119.5" y="-167.5" width="239" height="335" rx="14" fill="#2a2320" stroke="#0f0c0a" stroke-width="1"/>
  <rect x="-106" y="-154" width="212" height="308" rx="9" fill="url(#sky)" stroke="#c9b98a" stroke-width="2.5"/>
  <g transform="translate(0,-24)"><g transform="translate(0,-34) scale(1.4)" fill="#8d979e" stroke="#69737a" stroke-width="2.5"><ellipse cx="0" cy="0" rx="42" ry="20"/><circle cx="-16" cy="-12" r="16"/><circle cx="8" cy="-16" r="19"/></g><g stroke="#7fb2d4" stroke-width="5" stroke-linecap="round"><line x1="-45" y1="12" x2="-51" y2="46"/><line x1="-27" y1="12" x2="-33" y2="46"/><line x1="-9" y1="12" x2="-15" y2="46"/><line x1="9" y1="12" x2="3" y2="46"/><line x1="27" y1="12" x2="21" y2="46"/><line x1="45" y1="12" x2="39" y2="46"/></g><g stroke="#7fb2d4" stroke-width="4" stroke-linecap="round"><line x1="-36" y1="52" x2="-42" y2="82"/><line x1="-18" y1="52" x2="-24" y2="82"/><line x1="0" y1="52" x2="-6" y2="82"/><line x1="18" y1="52" x2="12" y2="82"/><line x1="36" y1="52" x2="30" y2="82"/><line x1="54" y1="52" x2="48" y2="82"/></g></g>
  <rect x="-92" y="96" width="184" height="42" rx="8" fill="#2a2320" opacity="0.82"/>
  <text x="0" y="124" text-anchor="middle" font-family="Georgia, serif" font-size="24" fill="#f5efdf">Downpour</text>
</svg>
