<?xml version="1.0" encoding="UTF-8" standalone="no"?>
<svg xmlns="http://www.w3.org/2000/svg" height="3.5in" width="2.5in" viewBox="-120 -168 240 336" preserveAspectRatio="none">
  <defs>
    <linearGradient id="sky" x1="0" y1="0" x2="0" y2="1">
      <stop offset="0" stop-color="#7ec8f0"/>
      <stop offset="1" stop-color="#c6e7f7"/>
    </linearGradient>
  </defs>
  <rect x="-119.5" y="-167.5" width="239" height="335" rx="14" fill="#2a2320" stroke="#0f0c0a" stroke-width="1"/>
  <rect x="-106" y="-154" width="212" height="308" rx="9" fill="url(#sky)" stroke="#c9b98a" stroke-width="2.5"/>
  <g transform="translate(0,-24)"><circle r="34" fill="#ffd75e" stroke="#e8a72e" stroke-width="3"/><g stroke="#e8a72e" stroke-width="5" stroke-linecap="round"><line x1="0" y1="-46" x2="0" y2="-62" transform="rotate(0)"/><line x1="0" y1="-46" x2="0" y2="-62" transform="rotate(45)"/><line x1="0" y1="-46" x2="0" y2="-62" transform="rotate(90)"/><line x1="0" y1="-46" x2="0" y2="-62" transform="rotate(135)"/><line x1="0" y1="-46" x2="0" y2="-62" transform="rotate(180)"/><line x1="0" y1="-46" x2="0" y2="-62" transform="rotate(225)"/><line x1="0" y1="-46" x2="0" y2="-62" transform="rotate(270)"/><line x1="0" y1="-46" x2="0" y2="-62" transform="rotate(315)"/></g></g>
  <rect x="-92" y="96" width="184" height="42" rx="8" fill="#2a2320" opacity="0.82"/>
  <text x="0" y="124" text-anchor="middle" font-family="Georgia, serif" font-size="24" fill="#f5efdf">High Sun</text>
</svg>
