<?xml version="1.0" encoding="UTF-8" standalone="no"?>
<svg xmlns="http://www.w3.org/2000/svg" height="3.5in" width="2.5in" viewBox="-120 -168 240 336" preserveAspectRatio="none">
  <defs>
    <linearGradient id="sky" x1="0" y1="0" x2="0" y2="1">
      <stop offset="0" stop-color="#9aa8ad"/>
      <stop offset="1" stop-color="#cfd6d6"/>
    </linearGradient>
  </defs>
  <rect x="-119.5" y="-167.5" width="239" height="335" rx="14" fill="#2a2320" stroke="#0f0c0a" stroke-width="1"/>
  <rect x="-106" y="-154" width="212" height="308" rx="9" fill="url(#sky)" stroke="#c9b98a" stroke-width="2.5"/>
  <g transform="translate(0,-24)"><g stroke="#e8e4da" stroke-width="9" stroke-linecap="round" opacity="0.9"><path d="M-72,-52 q18,-9 42,0 q24,9 46,0 q16,-6 30,0" fill="none" opacity="0.95"/><path d="M-56,-26 q18,-9 42,0 q24,9 46,0 q16,-6 30,0" fill="none" opacity="0.86"/><path d="M-72,0 q18,-9 42,0 q24,9 46,0 q16,-6 30,0" fill="none" opacity="0.77"/><path d="M-56,26 q18,-9 42,0 q24,9 46,0 q16,-6 30,0" fill="none" opacity="0.6799999999999999"/><path d="M-72,52 q18,-9 42,0 q24,9 46,0 q16,-6 30,0" fill="none" opacity="0.59"/></g></g>
  <rect x="-92" y="96" width="184" height="42" rx="8" fill="#2a2320" opacity="0.82"/>
  <text x="0" y="124" text-anchor="middle" font-family="Georgia, serif" font-size="24" fill="#f5efdf">Mist</text>
</svg>
